<svg width="19" height="23" viewBox="0 0 19 23" fill="none" xmlns="http://www.w3.org/2000/svg">
<path d="M9.01 0C4.04186 0 0 3.73669 0 8.32968C0 14.0297 8.06307 22.3977 8.40636 22.7512C8.72881 23.0832 9.29178 23.0826 9.61364 22.7512C9.95693 22.3977 18.02 14.0297 18.02 8.32968C18.0199 3.73669 13.9781 0 9.01 0ZM9.01 12.5206C6.51041 12.5206 4.47689 10.6406 4.47689 8.32968C4.47689 6.01881 6.51045 4.13883 9.01 4.13883C11.5095 4.13883 13.5431 6.01886 13.5431 8.32973C13.5431 10.6406 11.5095 12.5206 9.01 12.5206Z" fill="black" fill-opacity="0.25"/>
</svg>
