<svg width="19" height="23" viewBox="0 0 19 23" fill="none" xmlns="http://www.w3.org/2000/svg">
<path d="M9.03125 0C4.05139 0 0 3.73669 0 8.32968C0 14.0297 8.08208 22.3977 8.42619 22.7512C8.74939 23.0832 9.31369 23.0826 9.63631 22.7512C9.98042 22.3977 18.0625 14.0297 18.0625 8.32968C18.0624 3.73669 14.0111 0 9.03125 0ZM9.03125 12.5206C6.52576 12.5206 4.48745 10.6406 4.48745 8.32968C4.48745 6.01881 6.52581 4.13883 9.03125 4.13883C11.5367 4.13883 13.575 6.01886 13.575 8.32973C13.575 10.6406 11.5367 12.5206 9.03125 12.5206Z" fill="#EFEFEF"/>
</svg>
