<svg width="25" height="34" viewBox="0 0 25 34" fill="none" xmlns="http://www.w3.org/2000/svg">
<path d="M12.5001 7C9.46742 7 7 9.69147 7 12.9999C7 16.3085 9.46742 19 12.5001 19C15.5328 19 18 16.3085 18 12.9999C18 9.69147 15.5328 7 12.5001 7Z" fill="#FFC445"/>
<path d="M25 17.2716L23.1801 13.1944L25 9.11711L21.1406 6.89224L20.2256 2.51981L15.8004 2.99736L12.5001 0L9.19965 2.99736L4.77463 2.52007L3.85965 6.8925L0 9.11711L1.81988 13.1944L0 17.2716L3.85965 19.4965L4.35525 21.8653L0.235398 30.6535L4.5351 30.71L7.31905 34L11.3686 25.3612L12.5001 26.3887L13.6314 25.3612L17.6812 34L20.4649 30.71L24.7646 30.6535L20.6447 21.8653L21.1406 19.4965L25 17.2716ZM12.5001 21.2108C8.09682 21.2108 4.51468 17.6148 4.51468 13.1944C4.51468 8.77393 8.09682 5.17787 12.5001 5.17787C16.9032 5.17787 20.4856 8.77419 20.4856 13.1944C20.4856 17.6148 16.9032 21.2108 12.5001 21.2108Z" fill="#FFC445"/>
</svg>
