<svg width="23" height="23" viewBox="0 0 23 23" fill="none" xmlns="http://www.w3.org/2000/svg">
<path d="M19.6318 3.36824C17.4597 1.19618 14.5718 0 11.5 0C8.42824 0 5.5403 1.19618 3.36824 3.36824C1.19622 5.5403 0 8.42824 0 11.5C0 14.5718 1.19622 17.4597 3.36824 19.6318C5.5403 21.8038 8.42824 23 11.5 23C14.5718 23 17.4597 21.8038 19.6318 19.6318C21.8038 17.4597 23 14.5718 23 11.5C23 8.42824 21.8038 5.5403 19.6318 3.36824ZM11.5 21.6523C5.90197 21.6523 1.34766 17.098 1.34766 11.5C1.34766 5.90197 5.90197 1.34766 11.5 1.34766C17.098 1.34766 21.6523 5.90197 21.6523 11.5C21.6523 17.098 17.098 21.6523 11.5 21.6523Z" fill="white"/>
<path d="M12.221 10.8262H10.7775C9.95511 10.8262 9.28609 10.1572 9.28609 9.33486C9.28609 8.51248 9.95516 7.84346 10.7775 7.84346H13.6645C14.0366 7.84346 14.3383 7.54176 14.3383 7.16963C14.3383 6.7975 14.0366 6.4958 13.6645 6.4958H12.1731V5.00439C12.1731 4.63226 11.8714 4.33057 11.4993 4.33057C11.1271 4.33057 10.8254 4.63226 10.8254 5.00439V6.4958H10.7775C9.21206 6.4958 7.93848 7.76943 7.93848 9.33486C7.93848 10.9003 9.2121 12.1739 10.7775 12.1739H12.2211C13.0434 12.1739 13.7124 12.8429 13.7124 13.6653C13.7124 14.4876 13.0434 15.1567 12.2211 15.1567H9.33407C8.96193 15.1567 8.66024 15.4584 8.66024 15.8305C8.66024 16.2027 8.96193 16.5043 9.33407 16.5043H10.8254V17.9958C10.8254 18.3679 11.1271 18.6696 11.4993 18.6696C11.8714 18.6696 12.1731 18.3679 12.1731 17.9958V16.5043H12.221C13.7865 16.5043 15.06 15.2307 15.06 13.6653C15.06 12.0999 13.7865 10.8262 12.221 10.8262Z" fill="white"/>
</svg>
