<svg width="23" height="27" viewBox="0 0 23 27" fill="none" xmlns="http://www.w3.org/2000/svg">
<path d="M22.1999 3.21063L11.6092 0.0333809C11.4609 -0.011127 11.3029 -0.011127 11.1545 0.0333809L0.563678 3.21063C0.229131 3.31098 0 3.61895 0 3.96826V15.6181C0 17.1334 0.613459 18.6845 1.82324 20.2284C2.7472 21.4076 4.02553 22.5916 5.62259 23.7477C8.30556 25.6898 10.9475 26.8812 11.0587 26.9309C11.1614 26.977 11.2717 27 11.3819 27C11.4921 27 11.6023 26.977 11.7051 26.9309C11.8162 26.8812 14.4581 25.6898 17.141 23.7477C18.7381 22.5916 20.0164 21.4076 20.9404 20.2284C22.1502 18.6846 22.7635 17.1334 22.7635 15.6181V3.96826C22.7635 3.61895 22.5345 3.31098 22.1999 3.21063Z" fill="#FFC445"/>
</svg>
