<svg width="23" height="23" viewBox="0 0 23 23" fill="none" xmlns="http://www.w3.org/2000/svg">
<path d="M20.9471 15.0969C19.5527 15.0969 18.1837 14.8766 16.8863 14.4436C16.2506 14.2247 15.4691 14.4256 15.0811 14.828L12.5203 16.7802C9.55053 15.1793 7.72121 13.3325 6.1576 10.3558L8.03383 7.83707C8.52128 7.34545 8.69613 6.62729 8.48665 5.95347C8.05607 4.63636 7.83734 3.25438 7.83734 1.84563C7.8374 0.82794 7.01757 0 6.00992 0H1.82748C0.819823 0 0 0.82794 0 1.84557C0 13.5103 9.39674 23 20.9471 23C21.9547 23 22.7746 22.1721 22.7746 21.1544V16.9424C22.7745 15.9248 21.9547 15.0969 20.9471 15.0969Z" fill="#EFEFEF"/>
</svg>
