<svg width="29" height="23" viewBox="0 0 29 23" fill="none" xmlns="http://www.w3.org/2000/svg">
<path d="M25.8683 15.0969C24.1463 15.0969 22.4556 14.8766 20.8534 14.4436C20.0684 14.2247 19.1032 14.4256 18.6241 14.828L15.4617 16.7802C11.7943 15.1793 9.53518 13.3325 7.60422 10.3558L9.92124 7.83707C10.5232 7.34545 10.7391 6.62729 10.4804 5.95347C9.94871 4.63636 9.67859 3.25438 9.67859 1.84563C9.67866 0.82794 8.66623 0 7.42185 0H2.25681C1.01243 0 0 0.82794 0 1.84557C0 13.5103 11.6043 23 25.8683 23C27.1126 23 28.1251 22.1721 28.1251 21.1544V16.9424C28.125 15.9248 27.1126 15.0969 25.8683 15.0969Z" fill="black" fill-opacity="0.25"/>
</svg>
